#!OML:ASF F:\VICON\USERDATA\INSTALL\rory3\rory3.ASF
:FULLY-SPECIFIED
:DEGREES
1011
root 0.432981 16.205 0.252797 2.74836 -0.987368 -1.67947
lowerback 7.08392 -1.88863 -3.99337
upperback -2.87122 -2.89486 0.448623
thorax -6.76999 -1.23667 3.07924
lowerneck 1.35742 -14.8731 -19.9273
upperneck 37.0657 -20.454 0.441179
head 15.067 -11.6925 0.537612
rclavicle 2.81436e-014 8.34896e-015
rhumerus -19.4465 -38.7706 -14.1423
rradius 56.4459
rwrist 29.7897
rhand 16.6577 8.8737
rfingers 7.12502
rthumb 41.4097 -15.9111
lclavicle 2.81436e-014 8.34896e-015
lhumerus -98.8005 -50.5891 121.681
lradius 101.88
lwrist 43.7626
lhand 14.2936 14.4368
lfingers 7.12502
lthumb 39.1863 39.9032
rfemur 0.56149 10.6822 17.862
rtibia 8.05693
rfoot -7.99192 -12.7009
rtoes -5.31837
lfemur 4.84831 -8.35669 -15.9844
ltibia 1.59028e-015
lfoot -5.3312 9.27028
ltoes -7.12927
1012
root 0.436947 16.2058 0.251622 2.76156 -0.894622 -1.63659
lowerback 7.09733 -1.90701 -3.93092
upperback -2.84293 -2.91173 0.470314
thorax -6.74784 -1.24823 3.06882
lowerneck 1.33306 -14.8116 -19.8005
upperneck 36.7905 -20.3089 0.362235
head 14.8875 -11.6168 0.536887
rclavicle 1.78285e-014 2.42517e-014
rhumerus -19.5048 -38.8469 -14.163
rradius 56.54
rwrist 29.8849
rhand 16.4385 8.66351
rfingers 7.12502
rthumb 41.204 -16.1877
lclavicle 1.78285e-014 2.42517e-014
lhumerus -98.7451 -50.6062 121.642
lradius 101.865
lwrist 43.7384
lhand 14.2604 14.4834
lfingers 7.12502
lthumb 39.155 39.9589
rfemur 0.526684 10.6016 17.7993
rtibia 8.11525
rfoot -8.06206 -12.7076
rtoes -5.10071
lfemur 4.80213 -8.45063 -16.0448
ltibia -1.90833e-014
lfoot -5.26246 9.26886
ltoes -6.98901
1013
root 0.440158 16.2071 0.24987 2.77392 -0.811902 -1.58963
lowerback 7.11401 -1.94129 -3.84943
upperback -2.81567 -2.9496 0.469644
thorax -6.72909 -1.27132 3.02697
lowerneck 1.21968 -14.7476 -19.6248
upperneck 36.6367 -20.1417 0.234134
head 14.7699 -11.5309 0.500142
rclavicle 4.43041e-014 -1.27222e-014
rhumerus -19.4993 -38.7142 -14.1793
rradius 56.6931
rwrist 29.7126
rhand 16.1624 8.54693
rfingers 7.12502
rthumb 40.9447 -16.387
lclavicle 4.43041e-014 -1.27222e-014
lhumerus -98.61 -50.5871 121.455
lradius 101.859
lwrist 43.6755
lhand 14.2478 14.5357
lfingers 7.12502
lthumb 39.1432 40.0145
rfemur 0.532179 10.5312 17.7455
rtibia 8.1124
rfoot -8.02701 -12.745
rtoes -5.07241
lfemur 4.76609 -8.53485 -16.1063
ltibia 1.43125e-014
lfoot -5.22052 9.26253
ltoes -6.92661
1014
root 0.442457 16.2074 0.247134 2.80311 -0.75253 -1.58072
lowerback 7.12261 -1.93499 -3.72875
upperback -2.80029 -2.92866 0.478037
thorax -6.72426 -1.26642 2.9656
lowerneck 1.11837 -14.709 -19.5111
upperneck 36.5352 -20.0372 0.170842
head 14.7023 -11.4729 0.480645
rclavicle 1.28503e-014 -4.77083e-015
rhumerus -19.5797 -38.5813 -13.9571
rradius 56.9111
rwrist 29.6656
rhand 16.1115 8.75874
rfingers 7.12502
rthumb 40.8968 -16.1904
lclavicle 1.28503e-014 -4.77083e-015
lhumerus -98.6759 -50.652 121.46
lradius 101.904
lwrist 43.5638
lhand 14.1883 14.5568
lfingers 7.12502
lthumb 39.087 40.0518
rfemur 0.519445 10.4854 17.7417
rtibia 8.09621
rfoot -7.96478 -12.8025
rtoes -5.29012
lfemur 4.70022 -8.59315 -16.1196
ltibia 1.43125e-014
lfoot -5.18711 9.27154
ltoes -7.13827
1015
root 0.445295 16.2072 0.247051 2.77979 -0.738844 -1.58101
lowerback 7.1946 -1.89994 -3.58889
upperback -2.80476 -2.86962 0.497511
thorax -6.78011 -1.24145 2.90401
lowerneck 1.09961 -14.6788 -19.4274
upperneck 36.3955 -19.9612 0.116657
head 14.6095 -11.4317 0.472426
rclavicle -2.9664e-014 -1.66979e-014
rhumerus -19.6278 -38.2081 -13.7298
rradius 57.1649
rwrist 29.164
rhand 15.7435 8.53779
rfingers 7.12502
rthumb 40.551 -16.5196
lclavicle -2.9664e-014 -1.66979e-014
lhumerus -98.8467 -50.685 121.589
lradius 101.959
lwrist 43.4856
lhand 13.9969 14.3329
lfingers 7.12502
lthumb 38.9066 39.8796
rfemur 0.568263 10.4878 17.7512
rtibia 8.07346
rfoot -7.92509 -12.8268
rtoes -5.69426
lfemur 4.71465 -8.6088 -16.1341
ltibia -7.95139e-015
lfoot -5.18688 9.32362
ltoes -7.15661
1016
root 0.449293 16.206 0.249611 2.73011 -0.781192 -1.59192
lowerback 7.24746 -1.86429 -3.42691
upperback -2.7963 -2.8063 0.516481
thorax -6.81225 -1.21622 2.82756
lowerneck 1.13704 -14.6277 -19.4226
upperneck 36.2402 -19.8966 0.168698
head 14.5257 -11.3953 0.517159
rclavicle -3.25331e-014 -9.14409e-015
rhumerus -19.5552 -37.5662 -13.6676
rradius 57.4381
rwrist 28.011
rhand 14.5932 7.53392
rfingers 7.12502
rthumb 39.4686 -17.8503
lclavicle -3.25331e-014 -9.14409e-015
lhumerus -99.0009 -50.6298 121.638
lradius 102.025
lwrist 43.4433
lhand 13.6847 13.8436
lfingers 7.12502
lthumb 38.6122 39.4736
rfemur 0.663748 10.5477 17.7646
rtibia 8.02162
rfoot -8.02403 -12.8451
rtoes -5.51132
lfemur 4.78916 -8.56956 -16.1459
ltibia -1.11319e-014
lfoot -5.2226 9.31209
ltoes -7.0867
